# File exported by ZBrush version 2026
# www.zbrush.com
#Vertex Count 848
#Face Count 828
#Auto scale x=0.054681 y=0.054681 z=0.054681
#Auto offset x=-0.000006 y=-0.446786 z=-2.660312
v -0.00029852 163.84214865 -98.12502275
v -0.0000649 184.2766224 229.29165098
v -0.00005671 55.85945282 140.11466349
v -0.00003486 0.01098116 -69.01926428
v 116.21807807 211.31269905 -59.97917649
v 171.82325117 250.7664306 21.24410602
v 201.91038579 263.83827233 92.22301379
v 150.99498169 239.27087059 158.3432428
v -150.99480788 239.2706613 158.34317304
v -201.91014222 263.83764446 92.22314023
v -171.82353082 250.76639572 21.24479493
v -116.21874141 211.31269905 -59.97844398
v 270.52622703 109.81382407 68.72645512
v 246.89567509 102.91114071 -3.11540142
v 195.0199982 60.67314304 -68.00009393
v 120.8524551 -1.64636372 -90.19985529
v 44.25122769 -56.47516197 -27.81313387
v 70.15237506 -7.6598717 135.47606578
v 123.92647388 51.47210286 218.50931487
v 231.176774 96.64162801 140.91951262
v -270.52549511 109.81385895 68.72697834
v -231.17588511 96.64209891 140.91992248
v -123.92604718 51.4727787 218.50983809
v -70.151944 -7.65932885 135.47703375
v -44.25046961 -56.47520994 -27.81231415
v -120.85189759 -1.64622637 -90.1988786
v -195.01947557 60.67300787 -67.99944862
v -246.89489085 102.91068725 -3.11503517
v 341.72316655 -342.29405915 167.08777886
v 370.01269577 -346.28486209 110.76119339
v 354.17903424 -328.30511061 51.2594456
v 304.61253618 -324.09553032 36.23913123
v 253.63612416 -333.99987932 42.39353468
v 229.76991219 -341.52743152 72.94428054
v 246.56307911 -337.42312388 139.18927229
v 286.46022546 -337.14361768 178.2497139
v -341.72295786 -342.29405915 167.08777886
v -286.46001677 -337.14361768 178.2497139
v -246.56287042 -337.42312388 139.18927229
v -229.76947676 -341.5274664 72.94352841
v -253.63687471 -333.99967003 42.39294606
v -304.61389715 -324.09525127 36.23901351
v -354.18008128 -328.30497108 51.26051385
v -370.0113011 -346.28493185 110.76378771
v 397.49998325 -898.03243144 -81.5427325
v 379.47132778 -887.82091515 -60.94009459
v 376.09008066 -865.14376432 -27.10880477
v 392.40284086 -844.40763456 4.63459068
v 426.08457586 -834.42661582 13.03985094
v 452.73180996 -842.38485104 -16.21016035
v 448.28695333 -873.73991409 -61.99519298
v 422.82119363 -894.53869119 -84.57762285
v -397.49963503 -898.03347789 -81.54374406
v -422.82063612 -894.53966787 -84.57804143
v -448.28657023 -873.74012338 -61.99541971
v -452.7315315 -842.38506033 -16.21020395
v -426.0842974 -834.42689488 13.03972885
v -392.40210894 -844.40805314 4.63443371
v -376.08941851 -865.14467124 -27.10983377
v -379.47084003 -887.82265923 -60.94110616
v 0.00010011 748.58904698 -107.02249716
v 0.00009889 768.63877677 223.76422671
v 135.00042882 676.28780858 -80.00747155
v 233.33627592 597.98184364 -7.70584509
v 235.24956612 605.45550378 88.38760834
v 154.67849525 683.32572787 191.64996581
v -154.67844352 683.32593716 191.64968675
v -235.24878188 605.45599212 88.38735109
v -233.33556144 597.98254127 -7.70602822
v -135.00020268 676.2879481 -80.00747155
v 122.86964012 816.35344599 -47.43329686
v 154.84093882 839.5344963 6.77911096
v 180.41150026 827.85906935 60.55662817
v 130.28646943 792.3829555 128.69255538
v -130.28670548 792.38309502 128.69224145
v -180.41094275 827.85913911 60.55643632
v -154.84074757 839.5344963 6.77911096
v -122.86944015 816.35344599 -47.43329686
v 325.145969 782.52771978 4.85043797
v 317.690238 762.86664069 -38.51145766
v 290.50982133 717.26551689 -59.79458311
v 264.31807105 669.98658851 -47.1200776
v 256.02676895 630.31791659 -7.81560874
v 266.1126592 625.02219329 34.12488382
v 277.39505781 646.87397589 66.17317491
v 279.39356374 691.44016285 85.58157611
v 292.57318958 737.15590757 89.07567826
v 313.03058054 773.52129273 62.54422488
v -325.14555102 782.52834765 4.84992347
v -313.03030208 773.52150202 62.54341825
v -292.57278904 737.15625638 89.07507655
v -279.39304111 691.44079072 85.58107033
v -277.3945003 646.87495257 66.17273017
v -266.1123633 625.02240258 34.1247879
v -256.02652538 630.31798635 -7.81560874
v -264.31805421 669.98791401 -47.12142054
v -290.51011841 717.2666331 -59.79507145
v -317.69002931 762.86719879 -38.5114751
v 343.0756654 411.0576708 44.75273808
v 337.45446197 410.64941665 65.71197922
v 345.66224009 413.83703605 85.62551384
v 365.89206354 419.11891135 103.95578171
v 394.77112655 427.73560638 128.08500525
v 426.50556179 450.27169605 99.11399437
v 427.21198379 449.00695929 44.25516089
v 414.14226985 435.39347621 12.70007807
v 386.80179898 422.10107818 7.64052059
v 360.68678821 414.29674055 25.24891392
v -343.07434049 411.05735686 44.75308689
v -360.68462615 414.2964615 25.24923657
v -386.79995086 422.09975268 7.64094789
v -414.13968921 435.39229023 12.69875257
v -427.21097282 449.00622678 44.25283254
v -426.50545774 450.27207975 99.11135645
v -394.77178989 427.73585055 128.08486573
v -365.89237807 419.11915553 103.95622209
v -345.66206628 413.836757 85.62586265
v -337.45373005 410.64906783 65.71246756
v 471.7229532 154.19458049 116.69758689
v 490.88578363 161.27627618 127.16648573
v 513.31869355 168.26096616 126.10940781
v 529.56943428 171.33837718 109.59572092
v 528.77120393 168.46922671 84.0796903
v 513.14323914 162.29361525 67.28276271
v 492.89283555 155.74276507 63.08374501
v 474.81171817 150.83469835 69.42010174
v 463.51423327 148.71604277 82.99474635
v 462.1043542 149.8581533 100.33741389
v -471.72330261 154.19456305 116.69824092
v -462.10386646 149.85803121 100.33820744
v -463.51367576 148.71604277 82.9954091
v -474.81060255 150.83452394 69.42037207
v -492.89144089 155.74210232 63.08347467
v -513.14167007 162.29302227 67.28174242
v -528.77036736 168.4686686 84.07791352
v -529.56943487 171.33823765 109.594003
v -513.31953131 168.26115801 126.10872761
v -490.88623769 161.27641571 127.1665991
v 0.00009889 867.65150116 243.30283653
v -103.71328082 880.52490151 200.56198583
v -157.54993105 888.63710407 118.72624796
v -133.06218143 916.85673058 40.54399059
v -57.74740021 930.75871931 -17.75861526
v 0.00009889 930.74525501 -35.27202166
v 57.74759583 930.75871931 -17.75861526
v 133.0623814 916.85673058 40.54399059
v 157.55017463 888.63710407 118.72624796
v 103.71347207 880.52490151 200.56198583
v 66.20682227 118.98654911 217.86608087
v 99.4099731 87.05416083 217.67097069
v 25.8085735 41.06986492 140.0105681
v 49.20864315 16.33712335 136.74665393
v 19.57844212 -9.48335706 -76.01454083
v 33.47660259 -30.68173332 -54.37110598
v 62.07850301 87.57615514 -106.52234745
v 106.04743428 44.19596846 -105.88427593
v 150.13998155 165.67247298 -55.88620537
v 183.18087194 124.51631045 -57.2833701
v 205.07119869 208.32484652 17.25929399
v 229.366088 161.37802579 10.40955217
v 223.57127888 213.60750667 82.97549825
v 246.84586418 166.1727099 75.98559129
v 185.43999568 196.08245418 151.81780386
v 209.87517875 149.7122436 143.60689511
v -62.07986835 87.57594585 -106.52081266
v -106.0475308 44.19617557 -105.88228768
v -19.57835115 -9.48389555 -76.01316301
v -33.4764375 -30.68180744 -54.36957119
v -25.8086395 41.07015706 140.01111748
v -49.20875711 16.33774141 136.74763062
v -66.20710191 118.9872293 217.86620296
v -99.4103574 87.05486719 217.67046491
v -185.44010092 196.08271579 151.81754225
v -209.87526655 149.71241801 143.60638061
v -223.57127948 213.60740202 82.97584706
v -246.84567292 166.17274478 75.9858856
v -205.07128649 208.32468956 17.26015731
v -229.36584442 161.3778165 10.41030212
v -150.14057513 165.67250787 -55.88482755
v -183.18085509 124.51624069 -57.28227133
v 0.00011037 684.86323868 -108.58576802
v 0.00001123 727.1181016 256.17344635
v -0.0000087 242.31969613 229.14464251
v -0.0000056 325.53993672 222.66939818
v -0.00000259 370.65139273 236.63434818
v -0.00029414 403.70651481 242.30178716
v 0.00000317 445.85481446 263.32103336
v 0.00000593 556.21347429 303.44278229
v -0.00007554 630.10855727 300.56510327
v 132.9353252 294.87383743 153.16182648
v 117.26378459 344.76639118 157.12221267
v 126.43800083 406.2193847 168.2117684
v 137.04152517 465.80216678 183.6922887
v 145.74604333 510.56812063 193.90026451
v 148.12316278 562.42438592 211.3048883
v 143.39644545 615.0141762 215.58820827
v 193.38487125 341.67068477 90.9937952
v 180.65966535 388.40514637 91.68108901
v 195.27126774 446.30663573 93.1239181
v 206.97379769 487.10623863 91.89197004
v 215.37982534 516.66510898 93.30214996
v 219.61745043 545.73103267 100.6785297
v 228.03165781 573.41114559 102.33579338
v 151.29253911 314.94601353 27.90209937
v 149.28927184 375.36958151 22.85922401
v 172.15875977 437.0812918 20.60219752
v 197.17322143 485.89009192 19.98802861
v 210.91721399 513.94647258 15.00457405
v 223.9631038 538.86420759 7.63744229
v 231.88633534 568.06505328 1.61950435
v 101.46843177 262.82107278 -42.66320427
v 85.22847818 319.96850932 -32.74172841
v 87.39022124 384.60961059 -31.88719917
v 89.09263478 446.04516331 -34.12167907
v 91.24498597 503.76914024 -40.0227724
v 87.70546363 559.67236783 -57.20322964
v 111.94873689 623.99500017 -74.62930561
v -0.00059527 244.98754494 -100.65046746
v -0.00035393 309.74150559 -80.84982711
v -0.00015294 366.44676563 -80.66542558
v -0.00009506 425.69632387 -71.14700651
v -0.00003988 484.341419 -65.80103628
v 0.00001268 540.89532781 -79.26192984
v 0.00006274 608.17787251 -105.94289444
v -101.46882478 262.82093325 -42.66262872
v -85.2286619 319.96843955 -32.74132727
v -87.3907625 384.60971523 -31.88685036
v -89.09274002 446.04530284 -34.12146978
v -91.24512609 503.76914024 -40.02272008
v -87.70537702 559.67250736 -57.20314243
v -111.94859796 623.99513969 -74.62925328
v -151.29271411 314.94556007 27.90248307
v -149.28988286 375.36975592 22.85952923
v -172.16027771 437.08184991 20.60241553
v -197.17287321 485.89040585 19.9881943
v -210.91759828 513.94675163 15.00464381
v -223.96312184 538.86452152 7.63744229
v -231.88630106 568.06522768 1.61939971
v -193.38424398 341.67012666 90.99395653
v -180.65987523 388.40518126 91.6812547
v -195.27227991 446.3078217 93.12407071
v -206.97378085 487.10655256 91.89203108
v -215.37972129 516.66517874 93.30220228
v -219.6173987 545.73120708 100.67855586
v -228.03143168 573.41138976 102.33569745
v -132.93516011 294.87376767 153.16186136
v -117.26380263 344.76642606 157.12223884
v -126.43804502 406.21948934 168.21178584
v -137.04129904 465.80227143 183.69225381
v -145.74600032 510.56815551 193.90024707
v -148.12309361 562.42449056 211.30494062
v -143.39636756 615.0141762 215.58812107
v 247.04683447 29.36601166 149.86930941
v 265.6986147 -38.29912742 162.50095416
v 275.87148219 -102.53214022 173.53363545
v 292.76451511 -162.85953965 174.84261952
v 309.52135285 -217.82000502 179.49700986
v 323.31684808 -264.44192117 181.67342936
v 334.63794782 -303.90111169 176.63785297
v 141.94178714 -0.30169852 217.50587611
v 167.95887656 -61.70260456 209.29870842
v 193.9117577 -120.46138315 205.89777064
v 218.49368762 -181.04003469 202.41496576
v 240.12655335 -229.76942687 197.28653458
v 257.41873632 -266.97926049 196.29614154
v 274.65584127 -300.1152381 190.99656382
v 87.85532367 -40.61581015 133.5167406
v 110.40791233 -85.59662152 132.55127045
v 132.85036237 -135.30107628 137.21218366
v 162.55849105 -190.07816911 150.66700782
v 195.99844429 -239.24297076 156.03619175
v 220.45870722 -274.04914876 152.95044403
v 237.64994287 -303.60046725 150.6171097
v 54.20883216 -84.4090254 -2.73917729
v 77.15972064 -114.35860446 18.54300634
v 102.5427848 -152.19899262 27.95112109
v 132.94059232 -194.10034805 43.71235535
v 163.46134874 -232.66566289 61.60715271
v 194.50598306 -266.96518577 71.66043739
v 218.60614587 -302.1344637 75.65326564
v 131.70201676 -49.87471889 -74.59381359
v 146.71971937 -98.30288672 -56.73288625
v 165.16512266 -143.18911229 -39.76346265
v 184.50834324 -183.67148455 -21.39339051
v 203.29675467 -219.80708723 -1.63657017
v 220.85623529 -253.64252796 15.83588087
v 238.90632549 -290.8943939 32.93529945
v 204.71859812 -8.41170081 -72.70347547
v 216.85772351 -72.60483305 -68.50041804
v 233.33746189 -126.06905253 -57.16927241
v 250.34431345 -170.99877545 -39.47263737
v 264.99955271 -210.11488807 -19.81455373
v 277.73871125 -243.99773289 -1.64841247
v 288.72179092 -280.72149153 20.33573704
v 263.09360509 30.76037932 -15.99606586
v 274.51954145 -42.81424865 -19.26472392
v 291.77591847 -103.42871922 -12.15919538
v 311.29665148 -156.4693192 3.00286469
v 322.06494775 -208.42330527 21.01276258
v 328.66321945 -252.39003464 32.59350781
v 334.90067597 -290.59364481 44.3245927
v 295.22352782 39.69403683 66.77271753
v 317.84873996 -32.27665051 69.99268089
v 330.99515852 -95.66807078 78.77521173
v 336.23025761 -153.59906996 93.69825224
v 338.24787866 -214.72520553 107.28365564
v 347.13773143 -269.17322542 112.25018827
v 354.18524316 -312.56207146 113.42656996
v -263.09217554 30.76007846 -15.99554263
v -274.51793749 -42.81418761 -19.26364259
v -291.77461101 -103.42845761 -12.15793965
v -311.29581492 -156.46877854 3.00428611
v -322.06456464 -208.42286925 21.01424505
v -328.66402232 -252.38970326 32.59473302
v -334.90140908 -290.59354017 44.32587459
v -204.71758715 -8.41162451 -72.70302201
v -216.85662534 -72.60450168 -68.4998425
v -233.33666021 -126.06852931 -57.16855734
v -250.34396523 -170.99807782 -39.47180021
v -264.9997626 -210.11422532 -19.81388226
v -277.73968853 -243.9969655 -1.64820318
v -288.72280308 -280.72100319 20.33558007
v -131.70111915 -49.87392969 -74.59257529
v -146.7187956 -98.30243326 -56.73274673
v -165.16447794 -143.18855419 -39.76330568
v -184.50796014 -183.67087412 -21.39346028
v -203.29675527 -219.80635471 -1.63663993
v -220.8565847 -253.6420745 15.83485186
v -238.90693652 -290.89383579 32.93469338
v -54.20801739 -84.40850218 -2.73754658
v -77.15874455 -114.35818588 18.543329
v -102.54206161 -152.19832987 27.950999
v -132.93953775 -194.09959809 43.7119673
v -163.46037265 -232.66501758 61.60636134
v -194.50474536 -266.96473231 71.65955881
v -218.6056058 -302.13421953 75.6524045
v -87.85416445 -40.61504276 133.51801378
v -110.40631709 -85.59602853 132.55123557
v -132.84813926 -135.30041353 137.21101512
v -162.55594529 -190.0768785 150.66558639
v -195.9982356 -239.24297076 156.03619175
v -220.45851597 -274.04914876 152.95044403
v -237.64975162 -303.60046725 150.6171097
v -141.94045352 -0.30125159 217.50613773
v -167.95660986 -61.70222086 209.29834216
v -193.9092817 -120.4606332 205.89724741
v -218.49349637 -181.04003469 202.41496576
v -240.12634465 -229.76942687 197.28653458
v -257.41852763 -266.97926049 196.29614154
v -274.65563257 -300.1152381 190.99656382
v -247.04444568 29.36656104 149.87073084
v -265.69497017 -38.29830334 162.50313426
v -275.86811671 -102.53166932 173.53567603
v -292.76427153 -162.85953965 174.84261952
v -309.52110928 -217.82000502 179.49700986
v -323.31660451 -264.44192117 181.67342936
v -334.63770424 -303.90111169 176.63785297
v -295.2222378 39.69407607 66.77385554
v -317.847136 -32.2764979 69.99444459
v -330.99306622 -95.66782661 78.77709969
v -336.22823508 -153.59851186 93.70019689
v -338.24763508 -214.72520553 107.28365564
v -347.13773203 -269.17224874 112.25211548
v -354.1849647 -312.56130406 113.42859745
v 288.53632549 -382.89110464 155.61383671
v 296.03128085 -443.72031066 130.5829371
v 293.90807322 -516.03229258 107.53806453
v 303.31016217 -582.29186484 82.62442375
v 320.65688252 -644.08048904 69.89506258
v 344.12755469 -703.54516206 51.54591068
v 367.01483222 -759.86086447 31.96678152
v 241.70445704 -382.46949084 114.45782243
v 233.96044712 -443.89353264 79.94607559
v 239.47901147 -525.70698118 64.23319811
v 268.95629378 -600.15716982 49.57031759
v 295.32063817 -657.71828459 30.82987272
v 322.26356353 -707.49431638 17.32181053
v 349.38898938 -764.0309588 6.4311758
v 226.40591401 -389.39864933 55.39257852
v 222.5050707 -449.04864824 28.05318027
v 237.70514299 -527.88544124 20.27097937
v 273.50347555 -597.15519024 7.68477661
v 300.13771626 -649.72126105 -16.61314738
v 321.17658336 -703.80977381 -23.89137468
v 350.03224082 -765.6374654 -26.80920677
v 259.5479959 -382.2139483 33.86810298
v 262.59947245 -443.82404851 -2.5269228
v 278.67167175 -518.70150177 -15.86507676
v 306.77561346 -575.05968996 -39.40186262
v 324.43131495 -628.71368274 -54.97072055
v 341.45297374 -694.45341463 -54.4855176
v 367.40316899 -763.11747967 -50.89477164
v 322.71754745 -370.11034981 30.20799497
v 333.36176989 -425.37332578 -25.43480228
v 344.63891882 -491.65748956 -68.26221165
v 356.24915208 -550.50699081 -74.54278182
v 366.22738028 -608.89410169 -73.59286886
v 384.83695379 -680.54654248 -59.61143731
v 399.99820287 -753.40979309 -51.56988741
v 378.82340221 -368.1820954 43.16188895
v 397.8815181 -422.20115892 -4.5074996
v 402.00424323 -495.62321263 -38.18702398
v 406.55119827 -557.27136866 -42.73146755
v 413.37899085 -614.70342155 -35.44925502
v 421.74711965 -679.55688195 -25.95019525
v 426.02611431 -746.48872713 -23.65861854
v 397.44340531 -381.24626317 97.99929642
v 436.07473357 -439.85176769 69.37329282
v 438.79361414 -519.30488355 44.2089297
v 429.66433412 -576.74461038 29.10417135
v 425.95792079 -628.77067926 23.18445126
v 425.75892131 -687.25406333 18.45493904
v 425.6661014 -747.08296993 11.14187375
v 349.58568668 -385.15268754 151.61078161
v 372.58357374 -445.69739929 126.30000955
v 382.28138883 -520.08671955 99.52196075
v 379.36486916 -579.846735 79.34397571
v 384.4494193 -634.01707999 67.92108494
v 392.39586454 -695.1824399 49.4947379
v 400.02080614 -752.4499912 33.30651371
v -397.44099907 -381.24675151 98.00268429
v -436.0742807 -439.85263973 69.37688781
v -438.79242876 -519.30512772 44.21122316
v -429.66377661 -576.74537778 29.10569306
v -425.95764234 -628.77123737 23.18551515
v -425.75853821 -687.25462143 18.45555819
v -425.66575318 -747.08331874 11.14222257
v -378.82427484 -368.18195588 43.16293104
v -397.88430923 -422.20115892 -4.50612178
v -402.00553444 -495.62394514 -38.18566359
v -406.55224531 -557.27213606 -42.73010716
v -413.3792705 -614.70397965 -35.44836554
v -421.74722489 -679.55744005 -25.94967202
v -426.0261149 -746.48900618 -23.65834821
v -322.71859449 -370.11045445 30.20820426
v -333.36445637 -425.37283743 -25.43551736
v -344.63961705 -491.65776861 -68.26188028
v -356.25012936 -550.50660712 -74.54285158
v -366.22804363 -608.89424122 -73.59265957
v -384.83723344 -680.546682 -59.61143731
v -399.99830811 -753.40993261 -51.5700095
v -259.54907783 -382.21377389 33.86832099
v -262.60010092 -443.82415316 -2.52757683
v -278.67191652 -518.70153665 -15.86566103
v -306.77613728 -575.05941091 -39.40256025
v -324.43124578 -628.71382226 -54.97117401
v -341.45318362 -694.45355416 -54.48591874
v -367.40299518 -763.11796801 -50.89520766
v -226.40560068 -389.39892838 55.39159748
v -222.50442599 -449.04878777 28.05250444
v -237.70512615 -527.88561565 20.27052591
v -273.50323198 -597.15560882 7.68434059
v -300.13768198 -649.7215401 -16.61384501
v -321.17647931 -703.80977381 -23.89179326
v -350.03213677 -765.63760492 -26.80964279
v -241.70271356 -382.46963037 114.4564446
v -233.9591571 -443.89370705 79.94521663
v -239.47779121 -525.70670213 64.23222796
v -268.95603276 -600.15730934 49.57009958
v -295.31990625 -657.71870317 30.82907916
v -322.26279673 -707.49459543 17.32091232
v -349.38850163 -764.03123785 6.4308357
v -288.5361168 -382.89110464 155.61383671
v -296.02768864 -443.72045018 130.58250108
v -293.90402755 -516.03361808 107.53768519
v -303.30793035 -582.29367868 82.6239681
v -320.65555762 -644.08076809 69.89462438
v -344.12678789 -703.54558064 51.54592376
v -367.01427471 -759.86114353 31.96684693
v -349.5827921 -385.15268754 151.61250825
v -372.57973736 -445.69729465 126.30145713
v -382.27702923 -520.08626609 99.52306388
v -379.3619397 -579.84708382 79.34501125
v -384.4477107 -634.01749857 67.92188068
v -392.39474892 -695.18285848 49.4952306
v -400.02035328 -752.45034002 33.30680584
v 132.28510617 751.33067034 155.53755067
v 123.21434002 745.56558034 -81.57450963
v 204.07290497 742.5417649 113.82124209
v 238.16772522 727.19260868 92.74806895
v 261.1382128 710.50769678 86.90527584
v 231.43976376 680.40362714 115.28116752
v 252.84546312 669.17440552 81.14948397
v 266.22204787 659.38921204 69.31884048
v 244.13577377 627.73221393 57.89190127
v 252.05644151 633.40235624 40.51857063
v 258.93667856 632.39727805 34.17468165
v 236.46770108 614.87158025 -15.59018365
v 241.88718426 625.91578991 -15.11036991
v 248.3997519 631.98937271 -12.66258036
v 172.404082 681.40144997 -69.87974084
v 201.48371416 681.270644 -61.08262077
v 234.4376273 677.99582061 -54.80084719
v 162.02713976 744.49764552 -73.4793816
v 199.07250667 741.61803058 -68.26522891
v 246.04960463 730.7451593 -66.84404821
v 164.90462693 804.14523761 -39.00979353
v 207.1011155 799.28337155 -33.42230315
v 257.91853721 781.22935716 -39.97594386
v 188.23891207 832.39883879 4.19935561
v 227.12400391 826.45801533 12.36016568
v 269.02806265 806.65985158 8.09141749
v 209.64115815 825.9483255 50.11750949
v 234.91984787 818.61788918 52.97637424
v 268.90519225 804.70648242 58.11451559
v 203.1980572 793.89430511 94.39718342
v 234.55871875 790.03598246 82.38438171
v 261.70957328 762.26249151 87.36293541
v -123.2140354 745.56571987 -81.57449219
v -132.28609217 751.33011224 155.53632981
v -162.02691362 744.49785481 -73.47932928
v -199.07254215 741.61851892 -68.26512427
v -246.04983196 730.74606622 -66.84427494
v -172.40392563 681.40179878 -69.87967107
v -201.48367988 681.27127186 -61.08293471
v -234.43768022 677.99700659 -54.80175412
v -236.46717845 614.8720686 -15.59049759
v -241.88659187 625.91641778 -15.11106755
v -248.3991595 631.99076798 -12.66355704
v -244.13521626 627.73263251 57.89155681
v -252.05591888 633.40305387 40.51813897
v -258.93624314 632.39776639 34.17437644
v -231.43941554 680.40362714 115.28077511
v -252.84506258 669.17538221 81.14903269
v -266.22138571 659.38970039 69.31826493
v -204.07318462 742.54169513 113.82055318
v -238.16755141 727.19281797 92.74752393
v -261.13803899 710.50811536 86.9047439
v -203.19807524 793.89437488 94.39674304
v -234.55840541 790.03605222 82.38390427
v -261.70938203 762.26277057 87.36247759
v -209.64091457 825.94811621 50.11725223
v -234.91939501 818.61767989 52.97599927
v -268.90519284 804.7063429 58.11382668
v -188.23882546 832.39883879 4.1991376
v -227.12393474 826.4578758 12.35981686
v -269.02785396 806.6599911 8.09109483
v -164.90427871 804.14530737 -39.00988073
v -207.10106377 799.28337155 -33.42223339
v -257.91850293 781.22963622 -39.97589154
v 0.00009889 795.68784681 215.75754096
v 0.00009889 798.83925912 -87.64416825
v 0.00009889 831.04124723 224.07938189
v 120.64741238 840.70219247 161.71058089
v 167.6410355 850.39376376 92.21692259
v 141.24919569 875.67629046 22.83117049
v 79.28966041 872.17564365 -44.06342114
v 0.00009889 866.54805688 -69.82204668
v -79.28946044 872.17564365 -44.06342114
v -141.24899572 875.67629046 22.83117049
v -167.64077448 850.39369399 92.21686591
v -120.64721241 840.70219247 161.71058089
v 339.45038666 733.5822187 63.77090365
v 350.30145694 692.29643617 62.40466799
v 357.80752208 653.20749631 64.50405803
v 366.25605295 612.47409867 73.17749669
v 379.42172616 561.78755269 97.11753773
v 401.87542551 507.25255555 101.19001592
v 421.08311367 457.93050768 102.92410195
v 311.38975045 703.47549807 86.74427986
v 322.61590249 666.92586834 83.81856235
v 330.53276814 630.99545663 83.04176891
v 335.24628278 593.10937358 87.51967149
v 339.49880231 547.39171038 100.4326886
v 355.51018555 498.99775704 117.31636017
v 380.3660755 447.48943563 130.09063575
v 292.7503183 665.13958201 84.39544065
v 303.03791135 635.33842412 82.5327244
v 308.27412665 604.35519884 81.15754598
v 308.92219175 570.70429917 82.17707605
v 311.41946956 529.86339647 87.23683846
v 329.64517115 485.09782632 98.50478301
v 353.32593514 440.72892964 104.65065355
v 286.76223028 627.15590027 66.23237115
v 291.6577222 603.82471959 66.7531664
v 290.89308282 579.1620039 66.89760671
v 289.06533972 550.36418013 67.24857875
v 296.75193454 513.51425477 71.00432336
v 317.50104025 472.72637209 78.90244233
v 338.61727472 431.53906029 84.36475793
v 272.10193319 608.33002602 38.68221614
v 275.38514559 586.8432444 44.21248326
v 274.74627179 566.47609212 48.23062465
v 275.10541267 537.45579355 50.88751191
v 289.5943365 505.97222671 54.72662789
v 312.60293222 467.42283531 59.05269961
v 331.84163011 426.77946706 63.6612272
v 260.03661724 612.801288 5.32125226
v 263.70265512 592.27954051 18.8921362
v 267.09769791 570.33528681 28.7436047
v 271.01838885 539.27326402 35.36141446
v 288.54811547 508.69204908 37.23561111
v 313.60155732 468.87969988 37.99917788
v 335.83776994 427.68248172 42.10088685
v 278.57210225 647.45342889 -29.94331781
v 281.02284802 619.07655617 -7.25736374
v 280.94957923 589.7833789 9.96057376
v 284.23875639 558.0998359 20.45627038
v 296.26428988 521.75513553 22.55567568
v 324.31976362 477.79609755 20.56821413
v 351.06675907 432.35682433 23.77227585
v 309.53104994 684.88828366 -49.16331918
v 319.38122782 652.69355093 -27.78583902
v 322.11427032 621.26565512 -6.41486865
v 320.44040736 586.02289912 4.63859334
v 323.48745395 543.00531531 7.06970078
v 352.48936992 489.48394234 2.18833591
v 375.20541372 439.10672632 8.01359666
v 346.21654347 723.6934269 -39.16644676
v 352.39934053 683.32307687 -28.75764018
v 357.6987264 649.49972261 -11.91784093
v 363.46803707 615.13061096 -5.67540506
v 379.50886037 563.78012875 -13.08869389
v 388.12346251 494.890031 1.29908205
v 403.49930314 448.93855649 10.49142799
v 366.69702604 748.55137486 8.18112422
v 369.13200533 701.35644135 13.0740785
v 373.51452855 662.62022415 23.7274094
v 383.32030217 622.84014042 30.42134823
v 405.33892342 567.39919857 34.3904025
v 409.11719282 500.75268481 36.7562552
v 420.41914256 459.70542261 42.40261698
v -346.21636966 723.69405477 -39.16676069
v -352.39955042 683.32363497 -28.75818084
v -357.69848282 649.49972261 -11.91784093
v -363.46779349 615.13061096 -5.67540506
v -379.50680296 563.78051245 -13.08965313
v -388.12206784 494.89062399 1.2980356
v -403.49769918 448.93719611 10.49051234
v -309.53101565 684.8889813 -49.1638424
v -319.38098425 652.69355093 -27.78583902
v -322.11406162 621.26565512 -6.41486865
v -320.44016379 586.02289912 4.63859334
v -323.48721037 543.00531531 7.06970078
v -352.48661487 489.48380282 2.1889289
v -375.20415858 439.10690073 8.01351817
v -278.57192843 647.45342889 -29.94331781
v -281.02260444 619.07655617 -7.25736374
v -280.94940542 589.7833789 9.96057376
v -284.23856514 558.0998359 20.45627038
v -296.26359284 521.75520529 22.55555359
v -324.31906658 477.79658589 20.56797868
v -351.06522488 432.35619647 23.77241537
v -260.03632135 612.80135777 5.32126098
v -263.70249875 592.27964515 18.8921362
v -267.09740202 570.33521705 28.74361778
v -271.01765694 539.27361283 35.36135341
v -288.54750564 508.69299089 37.23551955
v -313.60033706 468.8804324 37.99926509
v -335.83679385 427.68178409 42.10122694
v -272.10165473 608.33016554 38.68216381
v -275.38497178 586.84320951 44.21248326
v -274.74627239 566.47692927 48.23046768
v -275.10553535 537.45718881 50.88746395
v -289.59346506 505.97323828 54.72658864
v -312.60209566 467.42321901 59.05291326
v -331.84100284 426.77946706 63.66168066
v -286.76146349 627.15701648 66.23202669
v -291.65749606 603.82485912 66.75315768
v -290.89331014 579.16287594 66.89757401
v -289.06596818 550.36571492 67.24866595
v -296.75116774 513.51498728 71.0041664
v -317.50135478 472.7271046 78.90252082
v -338.61689161 431.53916494 84.36513509
v -292.74976079 665.1405587 84.3950853
v -303.03738872 635.33967986 82.53247151
v -308.27433654 604.35652434 81.15737375
v -308.92288998 570.70590373 82.17707169
v -311.41953992 529.86440803 87.23679485
v -329.6450671 485.09866348 98.50476993
v -353.32631943 440.72966215 104.65112881
v -311.38929758 703.47612594 86.74380895
v -322.61562403 666.92705431 83.81808926
v -330.53311755 630.99643331 83.04116721
v -335.24659731 593.11083861 87.51908286
v -339.49939589 547.39286148 100.43230054
v -355.51039544 498.99890813 117.31603316
v -380.3666342 447.49030767 130.09135082
v -339.44996868 733.58291633 63.77023436
v -350.30145754 692.29783144 62.40376325
v -357.80762732 653.20868228 64.50277177
v -366.25650701 612.47549394 73.17609706
v -379.42224998 561.78832009 97.1164346
v -401.87608885 507.25307877 101.18747829
v -421.08276545 457.93099602 102.92114573
v -366.69601507 748.55179344 8.17985977
v -369.1322501 701.35755756 13.07252627
v -373.51494773 662.62106131 23.72540371
v -383.32019812 622.84118687 30.41919865
v -405.33892402 567.40062871 34.38721955
v -409.11614697 500.75303363 36.75378732
v -420.41865482 459.70503891 42.40081185
v 370.47892313 396.84248026 27.68221454
v 380.56713299 361.74622694 34.98837327
v 391.13154635 319.13532761 43.09596274
v 414.03905522 277.78700239 46.89042592
v 432.69669555 246.15871183 51.45721551
v 452.66640697 208.82461253 61.47619414
v 468.13342809 174.48628389 67.564691
v 398.97121904 404.09485157 8.04519066
v 414.11443434 368.07123625 11.98133415
v 425.11734419 325.17378465 23.01027875
v 441.51141338 284.53095706 31.12688947
v 454.89991019 251.82112786 37.69131731
v 470.53474665 212.40498122 51.47955281
v 485.45283615 178.73383279 60.55902192
v 427.99671497 416.25119103 15.20066092
v 447.1642893 379.39432424 19.07644181
v 458.55365231 335.62807682 26.6293878
v 469.66989246 292.74855435 35.56109413
v 481.53905177 257.78762417 40.91630362
v 492.45399024 216.8734178 52.27700269
v 505.14761086 184.35144342 62.84244941
v 442.28288955 428.39887985 46.27021813
v 463.46163183 389.0359102 51.0153573
v 474.86913327 343.6561101 56.598518
v 485.1304256 298.67626234 62.13760144
v 499.27934111 262.61767822 65.45869308
v 510.59608065 221.618291 70.64544192
v 521.0957189 190.08109372 78.88417092
v 437.36148061 432.82744677 96.29678695
v 454.20817334 392.25677176 97.20024199
v 463.54001077 345.93897077 100.0255899
v 476.10481367 300.96093685 102.05266821
v 492.7824702 265.56435302 105.65544396
v 508.97035429 225.03182103 107.8758535
v 521.29918322 193.21353044 108.03899907
v 408.11040543 415.00846455 124.85853648
v 427.29186264 383.43437999 120.845575
v 438.6585875 340.18790317 117.2389274
v 454.13063156 296.99503936 118.13002563
v 470.23403244 263.50264165 122.09412671
v 488.44776964 223.47484629 123.86023403
v 504.43389861 190.39112131 123.72166691
v 378.6111826 403.64480927 104.11096555
v 395.29783858 372.76071748 103.05911987
v 407.17861346 331.79936864 104.42071845
v 428.6553143 288.34457896 110.22615337
v 447.67956017 256.23652698 115.98465511
v 468.10513912 218.1410323 119.2385539
v 484.03810854 184.26031526 122.54727347
v 353.94333932 396.7737984 86.63918162
v 363.84416527 362.3526783 89.3736499
v 375.10519891 321.65719695 93.35729776
v 403.2511555 280.46918752 97.74949626
v 427.81362149 248.31571971 101.88170045
v 451.26870158 211.94618364 106.48109125
v 466.27211146 177.82853339 111.81751264
v 343.34313744 392.57688013 68.11050071
v 349.20861667 355.51020056 72.62139037
v 361.08719401 313.84870841 77.50682112
v 390.10069067 274.44473545 82.26180126
v 416.05999001 243.26441173 86.56356269
v 441.5242498 207.87456005 91.54940664
v 456.72976363 173.71562744 96.56639986
v 349.9977778 392.82907404 47.92576825
v 356.69452024 356.15756803 53.68618848
v 367.23873716 313.55933072 59.51925834
v 394.42555461 273.67749739 63.88543736
v 418.27319214 242.48315127 68.28473426
v 442.04314837 206.8317051 75.64378657
v 457.48003179 172.54946605 80.53499022
v -343.34233576 392.57681037 68.11098687
v -349.20736152 355.5097471 72.62188525
v -361.08579934 313.8481503 77.50733344
v -390.09978434 274.44435175 82.26233102
v -416.05915345 243.26408036 86.56411643
v -441.5238667 207.87438565 91.54996911
v -456.72920612 173.71548791 96.56703645
v -353.94309574 396.77393793 86.63954788
v -363.84399146 362.35257365 89.37401616
v -375.10512974 321.6570923 93.35766401
v -403.25115609 280.46918752 97.74986251
v -427.81390114 248.31591156 101.88213647
v -451.26870218 211.94621852 106.48148366
v -466.27211206 177.82860315 111.81804895
v -378.61104367 403.64498368 104.1111574
v -395.29776942 372.76089189 103.05922451
v -407.17927681 331.79971745 104.42098442
v -428.65510561 288.34440455 110.22617081
v -447.68029328 256.23664907 115.98496905
v -468.10597687 218.14113694 119.23878063
v -484.0381789 184.26026293 122.54729963
v -408.11085949 415.00930171 124.85832719
v -427.29304921 383.43451951 120.84524363
v -438.6593206 340.18811246 117.23855678
v -454.13056239 296.99489984 118.12971169
v -470.23459114 263.50269397 122.09383893
v -488.44853763 223.47482885 123.85980673
v -504.43463172 190.39126083 123.72103904
v -437.36176026 432.82776071 96.29463302
v -454.20929015 392.25698105 97.19834094
v -463.54039506 345.93869172 100.02382402
v -476.10572118 300.9612159 102.05120755
v -492.78320331 265.56395189 105.65383941
v -508.97080835 225.03152454 107.87390013
v -521.29967216 193.21344324 108.03703698
v -442.28215763 428.39818222 46.2685133
v -463.46100456 389.03580556 51.01303332
v -474.868506 343.65513342 56.5964251
v -485.12969368 298.67584376 62.13497878
v -499.27850455 262.61725964 65.45634729
v -510.59513945 221.61785498 70.64386571
v -521.09460328 190.08044841 78.88232656
v -427.9953203 416.25080733 15.19955343
v -447.16244117 379.39362661 19.07502038
v -458.55225764 335.62741407 26.62814951
v -469.66814897 292.74764743 35.55989507
v -481.53699435 257.78706607 40.91511765
v -492.45270022 216.87312131 52.27624401
v -505.14562321 184.35074578 62.84167548
v -398.97027783 404.09453764 8.04508601
v -414.11157464 368.07025957 11.98186609
v -425.11444961 325.17319166 23.01095022
v -441.50963501 284.53060825 31.12692435
v -454.89767837 251.82063952 37.69161817
v -470.53345662 212.4048417 51.47955281
v -485.45133684 178.73334444 60.55883879
v -370.47613319 396.84206168 27.68299937
v -380.56469188 361.74542466 34.98918863
v -391.13025633 319.13480439 43.09615459
v -414.03671875 277.7864094 46.89098403
v -432.69491719 246.15832813 51.45779542
v -452.6644542 208.82405443 61.47659528
v -468.13213807 174.48590019 67.56498749
v -349.99641802 392.82855082 47.92613015
v -356.69211401 356.15655646 53.6865373
v -367.23772619 313.55884238 59.51961152
v -394.4234972 273.6768172 63.886002
v -418.27228582 242.48280246 68.28524004
v -442.04182346 206.83139116 75.64430107
v -457.47982309 172.54962302 80.53553743
v 364.05108288 -812.95880979 -7.06247157
v 381.62795197 -806.1238316 17.78981685
v 363.06386406 -819.75716231 -43.26707439
v 382.44083259 -825.83562853 -68.79488844
v 414.74317503 -821.07443075 -69.1308505
v 437.10199645 -808.18833351 -36.80178875
v 434.63039149 -799.2710638 -0.62982638
v 411.04942373 -799.39363771 20.48012939
v -437.10182264 -808.18861256 -36.80173643
v -434.63011303 -799.27134285 -0.62966941
v -414.74296634 -821.07443075 -69.13097258
v -382.44058901 -825.83604711 -68.79515006
v -363.06313214 -819.75758089 -43.26747553
v -364.05035096 -812.95894932 -7.06258493
v -381.62739446 -806.12411065 17.78983429
v -411.04904063 -799.393847 20.48020787
g Group59223
f 2 3 151 149
f 149 151 152 150
f 150 152 18 19
f 3 4 153 151
f 151 153 154 152
f 152 154 17 18
f 4 1 155 153
f 153 155 156 154
f 154 156 16 17
f 1 5 157 155
f 155 157 158 156
f 156 158 15 16
f 5 6 159 157
f 157 159 160 158
f 158 160 14 15
f 6 7 161 159
f 159 161 162 160
f 160 162 13 14
f 7 8 163 161
f 161 163 164 162
f 162 164 20 13
f 8 2 149 163
f 163 149 150 164
f 164 150 19 20
f 1 4 167 165
f 165 167 168 166
f 166 168 25 26
f 4 3 169 167
f 167 169 170 168
f 168 170 24 25
f 3 2 171 169
f 169 171 172 170
f 170 172 23 24
f 2 9 173 171
f 171 173 174 172
f 172 174 22 23
f 9 10 175 173
f 173 175 176 174
f 174 176 21 22
f 10 11 177 175
f 175 177 178 176
f 176 178 28 21
f 11 12 179 177
f 177 179 180 178
f 178 180 27 28
f 12 1 165 179
f 179 165 166 180
f 180 166 26 27
g Group17522
f 2 8 190 183
f 183 190 191 184
f 184 191 192 185
f 185 192 193 186
f 186 193 194 187
f 187 194 195 188
f 188 195 196 189
f 189 196 66 182
f 8 7 197 190
f 190 197 198 191
f 191 198 199 192
f 192 199 200 193
f 193 200 201 194
f 194 201 202 195
f 195 202 203 196
f 196 203 65 66
f 7 6 204 197
f 197 204 205 198
f 198 205 206 199
f 199 206 207 200
f 200 207 208 201
f 201 208 209 202
f 202 209 210 203
f 203 210 64 65
f 6 5 211 204
f 204 211 212 205
f 205 212 213 206
f 206 213 214 207
f 207 214 215 208
f 208 215 216 209
f 209 216 217 210
f 210 217 63 64
f 5 1 218 211
f 211 218 219 212
f 212 219 220 213
f 213 220 221 214
f 214 221 222 215
f 215 222 223 216
f 216 223 224 217
f 217 224 181 63
f 1 12 225 218
f 218 225 226 219
f 219 226 227 220
f 220 227 228 221
f 221 228 229 222
f 222 229 230 223
f 223 230 231 224
f 224 231 70 181
f 12 11 232 225
f 225 232 233 226
f 226 233 234 227
f 227 234 235 228
f 228 235 236 229
f 229 236 237 230
f 230 237 238 231
f 231 238 69 70
f 11 10 239 232
f 232 239 240 233
f 233 240 241 234
f 234 241 242 235
f 235 242 243 236
f 236 243 244 237
f 237 244 245 238
f 238 245 68 69
f 10 9 246 239
f 239 246 247 240
f 240 247 248 241
f 241 248 249 242
f 242 249 250 243
f 243 250 251 244
f 244 251 252 245
f 245 252 67 68
f 9 2 183 246
f 246 183 184 247
f 247 184 185 248
f 248 185 186 249
f 249 186 187 250
f 250 187 188 251
f 251 188 189 252
f 252 189 182 67
g Group3798
f 20 19 260 253
f 253 260 261 254
g Group25056
f 830 767 768 831
f 762 699 126 127
g Group3798
f 254 261 262 255
g Group25056
f 99 108 693 756
g Group3798
f 255 262 263 256
f 256 263 264 257
g Group25056
f 749 756 757 750
g Group3798
f 257 264 265 258
g Group25056
f 736 743 744 737
g Group3798
f 258 265 266 259
f 259 266 36 29
f 19 18 267 260
f 260 267 268 261
f 261 268 269 262
g Group25056
f 755 762 127 128
g Group3798
f 262 269 270 263
f 263 270 271 264
g Group25056
f 100 99 756 749
g Group3798
f 264 271 272 265
g Group25056
f 742 749 750 743
f 729 736 737 730
g Group3798
f 265 272 273 266
f 266 273 35 36
f 18 17 274 267
f 267 274 275 268
g Group25056
f 768 775 776 769
g Group3798
f 268 275 276 269
g Group25056
f 831 768 769 832
g Group3798
f 269 276 277 270
f 270 277 278 271
g Group25056
f 748 755 128 119
g Group3798
f 271 278 279 272
g Group25056
f 101 100 749 742
f 735 742 743 736
g Group3798
f 272 279 280 273
f 273 280 34 35
f 17 16 281 274
f 274 281 282 275
g Group25056
f 761 698 699 762
g Group3798
f 275 282 283 276
g Group25056
f 812 819 820 813
g Group3798
f 276 283 284 277
f 277 284 285 278
g Group25056
f 828 765 766 829
g Group3798
f 278 285 286 279
g Group25056
f 741 748 119 120
f 102 101 742 735
f 728 735 736 729
g Group3798
f 279 286 287 280
f 280 287 33 34
f 16 15 288 281
f 281 288 289 282
g Group25056
f 767 774 775 768
g Group3798
f 282 289 290 283
g Group25056
f 754 761 762 755
g Group3798
f 283 290 291 284
f 284 291 292 285
f 285 292 293 286
g Group25056
f 832 769 130 131
f 734 741 120 121
f 103 102 735 728
g Group3798
f 286 293 294 287
f 287 294 32 33
f 15 14 295 288
f 288 295 296 289
g Group25056
f 760 697 698 761
g Group3798
f 289 296 297 290
f 290 297 298 291
f 291 298 299 292
g Group25056
f 747 754 755 748
g Group3798
f 292 299 300 293
g Group25056
f 112 111 812 805
f 727 734 121 122
g Group3798
f 293 300 301 294
f 294 301 31 32
f 14 13 302 295
f 295 302 303 296
g Group25056
f 766 773 774 767
f 111 110 819 812
g Group3798
f 296 303 304 297
g Group25056
f 753 760 761 754
g Group3798
f 297 304 305 298
f 298 305 306 299
f 299 306 307 300
g Group25056
f 740 747 748 741
g Group3798
f 300 307 308 301
f 301 308 30 31
f 13 20 253 302
f 302 253 254 303
g Group25056
f 778 785 786 779
f 759 696 697 760
g Group3798
f 303 254 255 304
f 304 255 256 305
f 305 256 257 306
g Group25056
f 746 753 754 747
g Group3798
f 306 257 258 307
g Group25056
f 733 740 741 734
g Group3798
f 307 258 259 308
f 308 259 29 30
f 28 27 316 309
f 309 316 317 310
g Group25056
f 794 801 802 795
g Group3798
f 310 317 318 311
g Group25056
f 752 759 760 753
g Group3798
f 311 318 319 312
f 312 319 320 313
g Group25056
f 804 811 134 135
g Group3798
f 313 320 321 314
g Group25056
f 739 746 747 740
f 726 733 734 727
g Group3798
f 314 321 322 315
f 315 322 42 43
f 27 26 323 316
f 316 323 324 317
g Group25056
f 765 772 773 766
g Group3798
f 317 324 325 318
g Group25056
f 779 786 787 780
g Group3798
f 318 325 326 319
f 319 326 327 320
g Group25056
f 745 752 753 746
g Group3798
f 320 327 328 321
g Group25056
f 796 803 804 797
f 732 739 740 733
f 822 829 830 823
g Group3798
f 321 328 329 322
f 322 329 41 42
f 26 25 330 323
f 323 330 331 324
g Group25056
f 811 818 133 134
f 758 695 696 759
g Group3798
f 324 331 332 325
f 325 332 333 326
f 326 333 334 327
f 327 334 335 328
g Group25056
f 738 745 746 739
f 725 732 733 726
g Group3798
f 328 335 336 329
f 329 336 40 41
f 25 24 337 330
f 330 337 338 331
f 331 338 339 332
g Group25056
f 751 758 759 752
g Group3798
f 332 339 340 333
f 333 340 341 334
f 334 341 342 335
g Group25056
f 780 787 788 781
f 731 738 739 732
g Group3798
f 335 342 343 336
f 336 343 39 40
f 24 23 344 337
f 337 344 345 338
g Group25056
f 764 771 772 765
g Group3798
f 338 345 346 339
g Group25056
f 787 794 795 788
g Group3798
f 339 346 347 340
f 340 347 348 341
g Group25056
f 744 751 752 745
g Group3798
f 341 348 349 342
g Group25056
f 724 731 732 725
g Group3798
f 342 349 350 343
f 343 350 38 39
f 23 22 351 344
f 344 351 352 345
g Group25056
f 757 694 695 758
g Group3798
f 345 352 353 346
f 346 353 354 347
f 347 354 355 348
f 348 355 356 349
g Group25056
f 737 744 745 738
f 781 788 789 782
g Group3798
f 349 356 357 350
f 350 357 37 38
f 22 21 358 351
f 351 358 359 352
g Group25056
f 763 770 771 764
g Group3798
f 352 359 360 353
g Group25056
f 750 757 758 751
g Group3798
f 353 360 361 354
f 354 361 362 355
f 355 362 363 356
g Group25056
f 730 737 738 731
g Group3798
f 356 363 364 357
f 357 364 44 37
f 21 28 309 358
f 358 309 310 359
g Group25056
f 118 117 770 763
f 756 693 694 757
g Group3798
f 359 310 311 360
f 360 311 312 361
f 361 312 313 362
g Group25056
f 743 750 751 744
g Group3798
f 362 313 314 363
g Group25056
f 821 828 829 822
f 723 730 731 724
g Group3798
f 363 314 315 364
f 364 315 43 44
g Group5575
f 36 35 372 365
g Group25056
f 716 723 724 717
g Group5575
f 365 372 373 366
g Group25056
f 808 815 816 809
f 829 766 767 830
f 696 703 704 697
g Group5575
f 366 373 374 367
f 367 374 375 368
f 368 375 376 369
f 369 376 377 370
f 370 377 378 371
f 371 378 833 834
f 35 34 379 372
g Group25056
f 813 820 821 814
g Group5575
f 372 379 380 373
g Group25056
f 709 716 717 710
f 806 813 814 807
f 783 790 137 138
g Group5575
f 373 380 381 374
f 374 381 382 375
f 375 382 383 376
g Group25056
f 807 814 815 808
g Group5575
f 376 383 384 377
g Group25056
f 827 764 765 828
f 790 797 136 137
g Group5575
f 377 384 385 378
f 378 385 835 833
f 34 33 386 379
g Group25056
f 722 729 730 723
g Group24536
f 639 646 647 640
g Group5575
f 379 386 387 380
g Group24536
f 611 618 619 612
f 632 639 640 633
g Group25056
f 702 709 710 703
f 113 112 805 798
g Group5575
f 380 387 388 381
f 381 388 389 382
g Group24536
f 688 625 626 689
g Group5575
f 382 389 390 383
g Group24536
f 681 688 689 682
f 674 681 682 675
g Group5575
f 383 390 391 384
g Group24536
f 625 632 633 626
f 667 674 675 668
f 618 555 556 619
f 660 667 668 661
f 653 660 661 654
g Group5575
f 384 391 392 385
f 385 392 836 835
f 33 32 393 386
g Group25056
f 772 779 780 773
f 715 722 723 716
g Group5575
f 386 393 394 387
g Group25056
f 820 827 828 821
f 695 702 703 696
g Group5575
f 387 394 395 388
f 388 395 396 389
g Group25056
f 769 776 129 130
g Group5575
f 389 396 397 390
g Group25056
f 117 116 777 770
f 770 777 778 771
g Group5575
f 390 397 398 391
g Group25056
f 773 780 781 774
f 771 778 779 772
f 786 793 794 787
g Group5575
f 391 398 399 392
f 392 399 837 836
f 32 31 400 393
g Group25056
f 721 728 729 722
f 805 812 813 806
g Group5575
f 393 400 401 394
g Group25056
f 708 715 716 709
f 802 809 810 803
f 797 804 135 136
g Group5575
f 394 401 402 395
f 395 402 403 396
f 396 403 404 397
f 397 404 405 398
g Group25056
f 823 830 831 824
f 815 822 823 816
g Group5575
f 398 405 406 399
f 399 406 838 837
f 31 30 407 400
g Group25056
f 104 103 728 721
f 714 721 722 715
g Group5575
f 400 407 408 401
g Group25056
f 819 826 827 820
f 701 708 709 702
g Group5575
f 401 408 409 402
f 402 409 410 403
f 403 410 411 404
g Group25056
f 798 805 806 799
g Group5575
f 404 411 412 405
g Group25056
f 800 807 808 801
f 784 791 792 785
g Group5575
f 405 412 413 406
f 406 413 839 838
f 30 29 414 407
g Group25056
f 720 727 122 123
g Group24536
f 638 645 646 639
g Group25056
f 105 104 721 714
g Group5575
f 407 414 415 408
g Group24536
f 610 617 618 611
g Group25056
f 707 714 715 708
g Group24536
f 631 638 639 632
g Group25056
f 694 701 702 695
g Group5575
f 408 415 416 409
f 409 416 417 410
g Group24536
f 687 624 625 688
g Group5575
f 410 417 418 411
g Group24536
f 680 687 688 681
f 673 680 681 674
g Group5575
f 411 418 419 412
g Group24536
f 624 631 632 625
f 666 673 674 667
f 617 554 555 618
f 659 666 667 660
f 652 659 660 653
g Group5575
f 412 419 420 413
f 413 420 840 839
f 29 36 365 414
g Group25056
f 713 720 123 124
g Group5575
f 414 365 366 415
g Group25056
f 106 105 714 707
f 700 707 708 701
g Group5575
f 415 366 367 416
f 416 367 368 417
f 417 368 369 418
f 418 369 370 419
f 419 370 371 420
f 420 371 834 840
f 44 43 428 421
g Group24536
f 637 644 645 638
g Group5575
f 421 428 429 422
g Group24536
f 609 616 617 610
g Group25056
f 706 713 124 125
g Group24536
f 630 637 638 631
g Group25056
f 107 106 707 700
f 693 700 701 694
g Group5575
f 422 429 430 423
f 423 430 431 424
g Group24536
f 686 623 624 687
g Group5575
f 424 431 432 425
g Group24536
f 679 686 687 680
f 672 679 680 673
g Group5575
f 425 432 433 426
g Group24536
f 623 630 631 624
f 665 672 673 666
f 616 553 554 617
f 658 665 666 659
f 651 658 659 652
g Group5575
f 426 433 434 427
f 427 434 841 842
f 43 42 435 428
g Group25056
f 719 726 727 720
g Group24536
f 96 95 644 637
g Group25056
f 789 796 797 790
g Group5575
f 428 435 436 429
g Group24536
f 80 79 616 609
f 97 96 637 630
g Group25056
f 699 706 125 126
f 108 107 700 693
g Group5575
f 429 436 437 430
f 430 437 438 431
g Group24536
f 89 98 623 686
g Group5575
f 431 438 439 432
g Group24536
f 90 89 686 679
f 91 90 679 672
g Group5575
f 432 439 440 433
g Group24536
f 98 97 630 623
f 92 91 672 665
f 79 88 553 616
f 93 92 665 658
f 94 93 658 651
g Group5575
f 433 440 441 434
f 434 441 843 841
f 42 41 442 435
g Group24536
f 636 643 110 111
g Group25056
f 712 719 720 713
g Group5575
f 435 442 443 436
g Group24536
f 608 615 106 107
f 629 636 111 112
f 692 629 112 113
g Group5575
f 436 443 444 437
f 437 444 445 438
g Group24536
f 685 692 113 114
g Group5575
f 438 445 446 439
g Group24536
f 678 685 114 115
f 671 678 115 116
g Group5575
f 439 446 447 440
g Group24536
f 622 559 104 105
f 664 671 116 117
f 615 622 105 106
f 657 664 117 118
f 650 657 118 109
g Group5575
f 440 447 448 441
f 441 448 844 843
f 41 40 449 442
g Group25056
f 718 725 726 719
g Group24536
f 635 642 643 636
g Group25056
f 814 821 822 815
g Group5575
f 442 449 450 443
g Group24536
f 607 614 615 608
g Group25056
f 705 712 713 706
g Group24536
f 628 635 636 629
f 691 628 629 692
g Group5575
f 443 450 451 444
f 444 451 452 445
g Group24536
f 684 691 692 685
g Group5575
f 445 452 453 446
g Group24536
f 677 684 685 678
f 670 677 678 671
g Group5575
f 446 453 454 447
g Group24536
f 621 558 559 622
f 663 670 671 664
f 614 621 622 615
f 656 663 664 657
f 649 656 657 650
g Group5575
f 447 454 455 448
f 448 455 845 844
f 40 39 456 449
g Group25056
f 788 795 796 789
f 711 718 719 712
g Group5575
f 449 456 457 450
g Group25056
f 791 798 799 792
f 698 705 706 699
g Group5575
f 450 457 458 451
f 451 458 459 452
f 452 459 460 453
f 453 460 461 454
g Group25056
f 824 831 832 825
g Group5575
f 454 461 462 455
f 455 462 846 845
f 39 38 463 456
g Group25056
f 717 724 725 718
g Group5575
f 456 463 464 457
g Group25056
f 704 711 712 705
f 115 114 791 784
g Group5575
f 457 464 465 458
f 458 465 466 459
f 459 466 467 460
g Group25056
f 799 806 807 800
g Group5575
f 460 467 468 461
g Group25056
f 825 832 131 132
f 114 113 798 791
g Group5575
f 461 468 469 462
f 462 469 847 846
f 38 37 470 463
g Group25056
f 782 789 790 783
g Group24536
f 634 641 642 635
g Group25056
f 710 717 718 711
g Group5575
f 463 470 471 464
g Group24536
f 606 613 614 607
f 627 634 635 628
g Group25056
f 697 704 705 698
g Group24536
f 690 627 628 691
g Group5575
f 464 471 472 465
f 465 472 473 466
g Group24536
f 683 690 691 684
g Group5575
f 466 473 474 467
g Group24536
f 676 683 684 677
f 669 676 677 670
g Group5575
f 467 474 475 468
g Group24536
f 620 557 558 621
f 662 669 670 663
f 613 620 621 614
f 655 662 663 656
f 648 655 656 649
g Group5575
f 468 475 476 469
f 469 476 848 847
f 37 44 421 470
g Group25056
f 803 810 811 804
g Group24536
f 633 640 641 634
g Group5575
f 470 421 422 471
g Group24536
f 605 612 613 606
g Group25056
f 703 710 711 704
g Group24536
f 626 633 634 627
f 689 626 627 690
g Group5575
f 471 422 423 472
f 472 423 424 473
g Group24536
f 682 689 690 683
g Group5575
f 473 424 425 474
g Group24536
f 675 682 683 676
f 668 675 676 669
g Group5575
f 474 425 426 475
g Group24536
f 619 556 557 620
f 661 668 669 662
f 612 619 620 613
f 654 661 662 655
f 647 654 655 648
g Group5575
f 475 426 427 476
f 476 427 842 848
g Group24536
f 646 653 654 647
f 645 652 653 646
f 644 651 652 645
f 95 94 651 644
f 643 650 109 110
f 642 649 650 643
g Group25056
f 816 823 824 817
g Group24536
f 641 648 649 642
f 640 647 648 641
g Group22548
f 477 66 482 479
g Group17522
f 61 478 63 181
g Group22548
f 479 482 483 480
f 480 483 484 481
f 481 484 85 86
f 66 65 485 482
g Group17522
f 61 542 71 478
g Group22548
f 482 485 486 483
f 483 486 487 484
f 484 487 84 85
f 65 64 488 485
g Group17522
f 61 509 78 542
g Group22548
f 485 488 489 486
f 486 489 490 487
f 487 490 83 84
f 64 63 491 488
g Group17522
f 61 181 70 509
g Group22548
f 488 491 492 489
f 489 492 493 490
f 490 493 82 83
f 63 478 494 491
g Group17522
f 62 510 67 182
g Group22548
f 491 494 495 492
f 492 495 496 493
f 493 496 81 82
f 478 71 497 494
g Group17522
f 62 541 75 510
g Group22548
f 494 497 498 495
f 495 498 499 496
f 496 499 80 81
f 71 72 500 497
g Group17522
f 62 477 74 541
g Group22548
f 497 500 501 498
f 498 501 502 499
f 499 502 79 80
f 72 73 503 500
g Group17522
f 62 182 66 477
g Group22548
f 500 503 504 501
f 501 504 505 502
f 502 505 88 79
f 73 74 506 503
f 503 506 507 504
f 504 507 508 505
f 505 508 87 88
f 74 477 479 506
f 506 479 480 507
f 507 480 481 508
f 508 481 86 87
f 509 70 514 511
f 511 514 515 512
f 512 515 516 513
f 513 516 96 97
f 70 69 517 514
f 514 517 518 515
f 515 518 519 516
f 516 519 95 96
f 69 68 520 517
f 517 520 521 518
f 518 521 522 519
f 519 522 94 95
f 68 67 523 520
f 520 523 524 521
f 521 524 525 522
f 522 525 93 94
f 67 510 526 523
f 523 526 527 524
f 524 527 528 525
f 525 528 92 93
f 510 75 529 526
f 526 529 530 527
f 527 530 531 528
f 528 531 91 92
f 75 76 532 529
f 529 532 533 530
f 530 533 534 531
f 531 534 90 91
f 76 77 535 532
f 532 535 536 533
f 533 536 537 534
f 534 537 89 90
f 77 78 538 535
f 535 538 539 536
f 536 539 540 537
f 537 540 98 89
f 78 509 511 538
f 538 511 512 539
f 539 512 513 540
f 540 513 97 98
g Group28583
f 541 74 544 543
f 543 544 148 139
f 74 73 545 544
f 544 545 147 148
f 73 72 546 545
f 545 546 146 147
f 72 71 547 546
f 546 547 145 146
f 71 542 548 547
f 547 548 144 145
f 542 78 549 548
f 548 549 143 144
f 78 77 550 549
f 549 550 142 143
f 77 76 551 550
f 550 551 141 142
f 76 75 552 551
f 551 552 140 141
f 75 541 543 552
f 552 543 139 140
g Group24536
f 88 87 560 553
f 553 560 561 554
f 554 561 562 555
g Group25056
f 777 784 785 778
g Group24536
f 555 562 563 556
g Group25056
f 818 825 132 133
g Group24536
f 556 563 564 557
f 557 564 565 558
f 558 565 566 559
f 559 566 103 104
f 87 86 567 560
f 560 567 568 561
f 561 568 569 562
g Group25056
f 110 109 826 819
f 116 115 784 777
g Group24536
f 562 569 570 563
g Group25056
f 793 800 801 794
g Group24536
f 563 570 571 564
f 564 571 572 565
f 565 572 573 566
f 566 573 102 103
f 86 85 574 567
f 567 574 575 568
f 568 575 576 569
g Group25056
f 776 783 138 129
g Group24536
f 569 576 577 570
g Group25056
f 826 763 764 827
g Group24536
f 570 577 578 571
f 571 578 579 572
f 572 579 580 573
f 573 580 101 102
f 85 84 581 574
f 574 581 582 575
f 575 582 583 576
g Group25056
f 109 118 763 826
f 795 802 803 796
g Group24536
f 576 583 584 577
f 577 584 585 578
f 578 585 586 579
f 579 586 587 580
f 580 587 100 101
f 84 83 588 581
f 581 588 589 582
f 582 589 590 583
f 583 590 591 584
g Group25056
f 801 808 809 802
g Group24536
f 584 591 592 585
f 585 592 593 586
g Group25056
f 810 817 818 811
g Group24536
f 586 593 594 587
f 587 594 99 100
f 83 82 595 588
f 588 595 596 589
f 589 596 597 590
g Group25056
f 775 782 783 776
g Group24536
f 590 597 598 591
f 591 598 599 592
f 592 599 600 593
f 593 600 601 594
f 594 601 108 99
f 82 81 602 595
f 595 602 603 596
f 596 603 604 597
g Group25056
f 809 816 817 810
g Group24536
f 597 604 605 598
f 598 605 606 599
f 599 606 607 600
g Group25056
f 785 792 793 786
g Group24536
f 600 607 608 601
f 601 608 107 108
f 81 80 609 602
f 602 609 610 603
f 603 610 611 604
g Group25056
f 774 781 782 775
g Group24536
f 604 611 612 605
g Group25056
f 817 824 825 818
f 792 799 800 793
g Group5575
f 834 833 47 48
f 833 835 46 47
f 835 836 45 46
f 836 837 52 45
f 837 838 51 52
f 838 839 50 51
f 839 840 49 50
f 840 834 48 49
f 842 841 55 56
f 841 843 54 55
f 843 844 53 54
f 844 845 60 53
f 845 846 59 60
f 846 847 58 59
f 847 848 57 58
f 848 842 56 57

 